<?xml version="1.0" encoding="UTF-8" standalone="no"?>
<!-- Created with Inkscape (http://www.inkscape.org/) -->

<svg
   xmlns:dc="http://purl.org/dc/elements/1.1/"
   xmlns:cc="http://creativecommons.org/ns#"
   xmlns:rdf="http://www.w3.org/1999/02/22-rdf-syntax-ns#"
   xmlns:svg="http://www.w3.org/2000/svg"
   xmlns="http://www.w3.org/2000/svg"
   xmlns:sodipodi="http://sodipodi.sourceforge.net/DTD/sodipodi-0.dtd"
   xmlns:inkscape="http://www.inkscape.org/namespaces/inkscape"
   width="100mm"
   height="100mm"
   viewBox="0 0 100 100"
   version="1.1"
   id="svg1194"
   inkscape:version="0.92.4 (5da689c313, 2019-01-14)"
   sodipodi:docname="captainEE.svg">
  <defs
     id="defs1188" />
  <sodipodi:namedview
     id="base"
     pagecolor="#ffffff"
     bordercolor="#666666"
     borderopacity="1.0"
     inkscape:pageopacity="0.0"
     inkscape:pageshadow="2"
     inkscape:zoom="0.7"
     inkscape:cx="383.55305"
     inkscape:cy="267.46599"
     inkscape:document-units="mm"
     inkscape:current-layer="layer1"
     showgrid="false"
     inkscape:window-width="1680"
     inkscape:window-height="986"
     inkscape:window-x="0"
     inkscape:window-y="0"
     inkscape:window-maximized="1" />
  <metadata
     id="metadata1191">
    <rdf:RDF>
      <cc:Work
         rdf:about="">
        <dc:format>image/svg+xml</dc:format>
        <dc:type
           rdf:resource="http://purl.org/dc/dcmitype/StillImage" />
        <dc:title></dc:title>
      </cc:Work>
    </rdf:RDF>
  </metadata>
  <g
     inkscape:label="Ebene 1"
     inkscape:groupmode="layer"
     id="layer1"
     transform="translate(0,-197)">
    <g
       id="g1752"
       transform="translate(-0.21803981,8.7818586)"
       style="fill:#ffffff;stroke:none">
      <path
         id="path995"
         d="m 72.952719,198.59302 c -0.01267,0 -0.02092,0 -0.02542,0.006 0.116886,0.76395 1.112672,1.19506 1.445206,1.8872 0.468577,0.52252 1.24839,1.57117 1.734371,2.33601 0.485911,0.76488 0.997435,1.51838 1.136331,1.67425 0.138903,0.15589 0.545591,0.67355 0.902607,1.14885 0.766918,1.02098 2.633827,2.99542 3.879626,4.10331 0.487304,0.43329 1.074436,0.96478 1.308132,1.18143 0.618796,0.57365 0.884808,0.53614 0.593399,-0.0873 -0.07816,-0.16721 -0.266988,-0.77909 -0.420899,-1.3568 -0.153884,-0.57771 -0.336509,-1.17091 -0.405497,-1.31849 -0.322269,-1.0298 -0.670109,-1.97537 -1.232613,-2.89398 -0.296727,-0.60509 -0.631955,-1.19979 -1.044689,-1.67962 -0.492325,-0.82109 -1.270892,-1.46994 -1.947338,-2.02965 -1.624203,-1.25855 -3.398867,-2.00707 -5.253961,-2.74078 -0.302552,-0.14003 -0.580899,-0.23433 -0.669258,-0.22977 z m -47.219737,0.60197 c -1.188375,0.0481 -2.321466,1.05172 -3.412922,1.47706 -1.54704,0.78858 -2.403028,1.42735 -3.478782,2.58797 -0.929396,1.0026 -2.389394,3.42213 -2.541084,4.21247 -0.124349,0.64846 -0.563622,2.27611 -0.806348,2.97592 -0.116836,0.337 -0.25841,0.79013 -0.314226,1.00678 -0.147311,0.57178 0.09129,0.48573 0.902623,-0.31747 0.394489,-0.39053 0.975684,-0.91848 1.288079,-1.17604 0.312413,-0.25757 0.718794,-0.62626 0.902625,-0.82066 0.183812,-0.19441 0.696272,-0.72035 1.14097,-1.16533 0.444697,-0.44495 1.133877,-1.29786 1.531811,-1.8983 0.397914,-0.6004 1.144928,-1.71245 1.65814,-2.47308 0.673275,-1.00332 1.293777,-2.0344 2.150627,-2.8775 0.669263,-0.76757 1.216686,-1.45425 1.216851,-1.52644 -0.07962,-0.006 -0.158891,-0.008 -0.237997,-0.006 z m 55.67904,3.87856 z m 0,0 0.70935,0.84178 c 0.391576,0.46376 0.760775,0.88205 0.816721,0.93019 0.715625,1.11885 1.143845,2.34506 1.36396,3.67633 0.128418,0.4333 0.353831,1.29999 0.502125,1.92584 0.126658,0.53455 0.32326,1.32442 0.483183,1.94375 l 2.754377,-0.74835 c -0.102876,-1.54422 -0.326266,-2.21374 -0.823515,-3.29625 -1.082698,-2.3569 -3.535222,-4.73053 -5.330194,-5.15877 z m -64.245339,0.73262 c -0.560324,0.0263 -2.145368,1.00885 -3.078283,2.00209 -1.773565,1.88815 -2.429085,3.12728 -2.794474,5.27399 -0.0195,0.11455 -0.03412,0.21036 -0.0519,0.31816 l 2.832406,0.76951 c 0.05043,-0.21272 0.09727,-0.41742 0.130268,-0.5841 0.424284,-2.14249 0.726124,-3.42395 1.014294,-4.28941 0.360313,-1.08199 1.235927,-2.54697 1.734736,-2.89935 0.227314,-0.16067 0.415872,-0.36324 0.415872,-0.44845 0,-0.10738 -0.07363,-0.14849 -0.202924,-0.14244 z m 60.065792,2.35247 0.111671,0.87541 c 0.131257,1.02507 0.394083,1.84874 1.090524,3.41364 0.341689,0.76778 1.326007,2.05078 2.364636,3.16311 l 3.228598,-0.87721 c -0.480358,-0.47379 -1.04363,-0.91838 -2.149896,-1.74976 -0.624808,-0.46955 -1.271626,-0.98182 -1.435171,-1.14348 -0.163545,-0.16164 -0.528623,-0.4423 -0.811367,-0.62347 -0.537966,-0.3447 -0.860021,-0.73241 -1.820624,-2.18283 z m -55.521556,0.99137 c -0.01704,-0.002 -0.03573,0 -0.05618,0.004 -0.139027,0.031 -0.372077,0.29091 -0.522172,0.57978 -0.375614,0.72288 -1.452284,1.80212 -3.276204,3.28803 -0.641905,0.55984 -1.309226,1.08896 -1.950195,1.64562 l 2.999542,0.81492 c 1.09472,-1.35228 1.921297,-2.74552 2.399363,-4.08504 0.528953,-1.48206 0.66109,-2.22101 0.405849,-2.24762 z m 71.781617,15.06003 c -0.07929,0 -0.121838,0.46477 -0.177507,1.71792 -0.198195,2.4355 -0.790736,4.71744 -1.693945,6.94788 -0.942625,2.12582 -1.745584,4.34332 -2.155631,6.66337 -0.147636,1.1009 -0.28683,0.69347 -0.329618,-0.97922 -0.04107,-1.60734 -0.199185,-2.33246 -0.780935,-3.58328 -0.209595,-0.48421 -0.37697,-0.9847 -0.583371,-1.46702 l -2.099795,3.65629 c 0.349003,1.33544 0.715972,2.6404 0.984587,3.46732 0.484077,1.49037 0.664791,3.06416 0.557594,4.85812 -0.114843,1.9215 0.0079,2.21335 0.542931,1.31313 0.157388,-0.26479 1.285665,-1.90631 2.505299,-3.64915 1.219544,-1.74268 2.373508,-3.51517 2.566134,-3.93901 2.01512,-4.4325 2.346588,-10.99011 0.755518,-14.86426 -0.03726,-0.0908 -0.06482,-0.14223 -0.09126,-0.14209 z M 5.8785474,222.9695 c -0.00346,-0.003 -0.00658,-0.003 -0.00971,0 v 0 c -0.3494464,0.37697 -0.9939899,4.2257 -0.9942461,5.93574 -1.836e-4,1.65755 0.2770098,4.08684 0.588397,5.16413 0.8938101,3.32259 2.3288687,6.29208 4.6354917,8.80252 0.686341,0.91488 1.404402,1.98611 1.597303,2.3854 0.60936,1.26116 0.725115,0.96953 0.725115,-1.85463 0.01466,-1.84783 0.166075,-3.57077 0.811717,-5.29583 0.140347,-0.52958 0.359031,-1.35681 0.486733,-1.83818 0.111468,-0.4202 0.289141,-1.11253 0.42804,-1.67139 l -1.987411,-3.35064 c -0.515173,1.23853 -0.909734,2.21999 -1.001759,2.39614 -0.645954,1.90208 -0.758008,2.60187 -0.689658,4.43686 0.075,2.01424 -0.119329,2.20417 -0.385454,0.37759 -0.3368216,-2.31181 -0.8176906,-4.02982 -1.5468379,-5.50915 -0.2290184,-0.46463 -0.4158908,-0.91396 -0.4158908,-0.99565 0,-0.0817 -0.2189768,-0.64702 -0.4867331,-1.25838 -0.267775,-0.61137 -0.4867518,-1.1695 -0.4867518,-1.24191 0,-0.0724 -0.10302,-0.38017 -0.2283404,-0.68358 -0.5217331,-1.26328 -0.7608853,-2.40092 -0.8571617,-4.09794 -0.052573,-0.92653 -0.1318257,-1.65888 -0.1828956,-1.70218 z m 1.6799828,2.16171 c 0.1099465,0.39195 0.2370814,0.7789 0.383677,1.15996 0.1797991,0.57771 0.5532322,1.72011 0.8317449,2.53858 0.2785134,0.81843 0.5397276,1.68478 0.5780077,1.92548 0.064611,0.40615 0.2426331,1.19846 0.3145932,1.40081 0.017044,0.0481 0.086986,0.35515 0.1571137,0.67823 l 0.1266951,0.58552 0.1929192,-0.49784 c 0.104999,-0.27492 0.283772,-0.87759 0.40048,-1.33495 0.152056,-0.53777 0.423936,-1.17005 0.744082,-1.80954 l -2.6051461,-4.39285 z m 84.1370058,0.20793 -0.436656,0.0984 -2.659528,4.63049 c 0.237796,0.57489 0.445721,1.15667 0.597319,1.69393 0.169577,0.60097 0.347043,1.09321 0.395475,1.09409 0.982081,-2.24804 1.177657,-5.09059 2.008174,-7.26534 0.03297,-0.0812 0.06441,-0.16581 0.09522,-0.25161 z m -7.320111,10.57378 c -0.417098,1.1345 -0.605271,2.43304 -0.944862,3.5575 -0.2347,1.2808 -0.821375,7.08763 -0.821375,8.13505 0,1.78317 -0.951987,6.68977 -1.501374,7.74672 -0.476416,0.91659 -0.584894,1.20998 -0.507146,1.34569 1.743845,-1.08415 3.449904,-2.31623 5.091822,-3.53425 0.510873,-0.30561 0.946933,-0.7425 1.460589,-1.05043 0.338081,-0.28886 0.653224,-0.52505 0.700049,-0.52505 2.71258,-2.31711 5.040219,-5.17307 6.166604,-8.75348 0.653612,-2.12105 0.99855,-5.59705 0.654236,-6.56494 -0.140309,-0.39443 -0.377025,-5e-5 -0.380453,0.63456 -0.0028,0.55305 -0.810557,2.7804 -1.135964,3.12948 -0.04488,0.0481 -0.300468,0.43605 -0.567982,0.86431 -0.267543,0.42829 -1.299115,1.68861 -2.292352,2.80092 -0.993162,1.11231 -2.080735,2.37864 -2.414024,2.81201 -0.604502,0.70871 -1.131954,1.41668 -1.592296,2.24868 -0.384816,0.54632 -1.005738,1.56144 -1.075135,1.65779 -0.525561,0.72975 -0.804753,1.1866 -0.836764,1.20897 0.01101,-0.0497 0.198493,-0.42594 0.567982,-1.23081 0.410158,-0.89346 0.703388,-1.97444 0.913017,-3.55071 0.208936,-1.57111 0.113631,-2.87858 -0.410871,-5.67305 -0.41369,-2.20424 -0.567982,-3.52329 -0.567982,-4.79262 0,-0.0663 -0.0035,-0.12117 -0.0048,-0.18396 z m -69.444174,0.48816 c -0.0978,-0.009 -0.156363,0.18489 -0.157481,0.59626 -0.002,0.72989 -0.511178,3.87254 -0.831397,5.13728 -0.118614,0.46853 -0.201954,1.92279 -0.202925,3.58866 0.01063,1.83574 0.03299,3.74054 0.978854,5.34521 0.236202,0.38503 0.387562,0.74715 0.339643,0.79884 -0.785641,-0.75061 -1.108352,-1.87202 -1.81562,-2.70285 -0.2629,-0.41747 -0.920435,-1.28383 -1.460584,-1.9255 -1.147256,-1.36291 -3.7382369,-4.31752 -4.2700844,-4.87459 -0.2024484,-0.21204 -0.3650591,-0.44059 -0.3650591,-0.50355 0,-0.063 -0.2076711,-0.39859 -0.4613356,-0.74945 -0.60619,-0.83841 -1.3482926,-2.57024 -1.4101189,-3.28801 -0.027045,-0.31395 -0.1292611,-0.71239 -0.2229716,-0.88616 -0.267757,-0.4965 -0.2211029,3.10005 0.060836,4.75969 0.2973313,1.75004 0.5356774,2.46915 1.414773,4.25614 0.8261752,1.67945 2.2204065,3.53485 3.4587346,4.60078 0.48939,0.42126 0.8926,0.82973 0.8926,0.90298 1.689347,1.27021 3.39579,2.62123 5.086456,3.81305 0.104138,0.003 0.808565,0.47033 1.567251,1.03397 1.84525,1.37084 1.855255,1.36801 1.237246,-0.0601 -0.21249,-0.49102 -0.499249,-1.1676 -0.633841,-1.5046 -0.480741,-1.20373 -0.998223,-4.2868 -1.17641,-7.00266 -0.256943,-3.9163 -0.911675,-8.38885 -1.511397,-10.31786 -0.203877,-0.65581 -0.391446,-1.00603 -0.517169,-1.01752 z m 66.675828,8.8351 c -0.0091,0.002 -0.01863,0.003 -0.02895,0.006 -0.123964,0.0343 -0.309263,0.2581 -0.567989,0.68933 -0.277778,0.46298 -0.686849,1.07165 -0.912642,1.35143 -1.057669,1.6036 -2.029506,3.33653 -2.682806,5.17519 0,0.10205 -0.07323,0.32529 -0.162132,0.49247 -0.08891,0.16721 -0.45172,1.24616 -0.806353,2.40151 -0.774391,2.52291 -1.092283,3.49503 -1.283054,3.90074 -0.07867,0.16728 -0.299622,0.65545 -0.492124,1.08873 -0.600505,1.35153 -1.345468,2.50143 -2.24151,3.46841 -0.294255,0.31756 -0.532563,0.61323 -0.532563,0.65673 0,0.14342 0.663031,0.0829 0.958456,-0.0877 0.353699,-0.20421 2.369055,-0.70278 3.585794,-0.88615 2.283847,-0.34418 3.122883,-0.57575 5.198126,-1.42802 1.414276,-0.58085 4.1979,-2.65153 5.756086,-4.28368 1.349479,-1.41355 2.565837,-3.23824 3.316645,-4.97301 0.471873,-1.09005 1.193102,-3.67508 1.065107,-3.81306 -0.03338,-0.036 -0.210184,0.23661 -0.395843,0.607 -0.53471,1.06668 -0.686267,1.28628 -1.632728,2.3854 -0.843177,0.97918 -2.386591,2.37367 -2.92117,2.637 -0.133875,0.0659 -0.46271,0.27035 -0.730481,0.45417 -0.267778,0.18381 -1.034598,0.62203 -1.703953,0.97348 -0.669423,0.35146 -1.326706,0.70793 -1.460581,0.79347 -0.133882,0.0855 -0.634269,0.36126 -1.110574,0.61271 -1.697754,1.01785 -3.359966,2.12091 -4.822673,3.49597 -0.321688,0.33701 -0.627135,0.61271 -0.679653,0.61271 -0.08772,0 0.448491,-0.706 0.862181,-1.13239 1.412725,-1.80732 2.435757,-3.89031 2.885731,-6.22063 0.140032,-0.72215 0.372149,-2.1398 0.517168,-3.15094 0.358629,-2.49963 0.699772,-4.15938 1.00927,-4.95119 0.176836,-0.45237 0.204906,-0.71991 0.09128,-0.84248 -0.01427,-0.0154 -0.0329,-0.0285 -0.05084,-0.0329 v 0 c -0.009,-0.002 -0.0178,-0.002 -0.02687,-0.002 z m -63.695252,0.5755 c -0.400847,0.0216 0.651671,2.4547 0.598769,3.06362 0.548047,2.68196 0.644213,3.2564 0.644213,3.78048 0,1.20827 1.134098,5.23354 1.622719,5.76074 0.522906,1.07366 1.059389,2.00721 1.988126,2.69712 l 1.176409,1.21435 -0.9989,-0.72188 c -0.54834,-0.39752 -1.105604,-0.84786 -1.242616,-0.99567 -1.552114,-1.00601 -2.955179,-2.33433 -4.665561,-3.08545 -5.154752,-2.56359 -7.1444538,-4.17248 -8.798947,-7.12327 -0.4050617,-0.72246 -0.4477756,-0.76196 -0.3650592,-0.30098 0.051819,0.28887 0.134648,0.75918 0.1825293,1.04507 0.9291953,2.94455 2.4646709,5.51819 4.6197509,7.62073 0.465111,0.43331 0.998718,0.93679 1.1868,1.11592 2.170546,1.8636 4.73448,3.14844 7.485452,3.62194 1.07108,0.19819 2.349007,0.43377 2.839918,0.52505 0.325442,0.0634 3.962436,1.14879 3.560032,0.51429 -0.467731,0 -2.082369,-2.32476 -2.921169,-4.20174 -0.193634,-0.43327 -0.418457,-0.92144 -0.497123,-1.08872 -0.180404,-0.3836 -0.473155,-1.25962 -1.288079,-3.86781 -0.874752,-2.7996 -2.055469,-5.40231 -3.113722,-6.86057 -0.06989,-0.0963 -0.487429,-0.67687 -0.933042,-1.29094 -0.445614,-0.61406 -0.811717,-1.18511 -0.811717,-1.26911 -0.123983,-0.10777 -0.211024,-0.15587 -0.268417,-0.15317 z m 57.647833,9.52441 v 0 c -0.262064,0.01 -1.549169,1.01446 -2.424052,1.90938 -0.488156,0.49934 -1.168363,1.15721 -1.511396,1.46058 -0.343047,0.30339 -1.707539,1.70191 -3.032832,3.10764 -2.214894,2.32867 -4.589919,4.3547 -7.789678,4.83058 -0.22445,0 -0.447737,0.0723 -0.497118,0.15854 -0.115791,0.2021 0.292178,0.36649 0.902989,0.36649 0.461408,0 1.93751,0.33072 3.306623,0.73869 0.35703,0.1064 0.941087,0.25299 1.298103,0.32821 0.35703,0.0752 1.34303,0.29479 2.191049,0.4871 2.997448,0.67463 6.145167,0.94941 9.087751,-0.18075 2.547975,-0.94343 4.836767,-2.67 6.562432,-4.89641 0.577443,-0.6571 1.682366,-2.68389 1.404774,-2.57688 -0.08659,0.0334 -0.546747,0.45412 -1.024321,0.93556 -0.91019,0.91756 -1.271071,1.20256 -1.871452,1.48278 -0.199607,0.0932 -0.674507,0.33222 -1.054718,0.53039 -1.070986,0.5582 -3.176045,0.98994 -6.369529,1.30777 -2.58349,0.26654 -5.178642,0.75941 -7.749229,0.94092 1.419297,-0.45035 2.733821,-1.19012 3.915064,-2.15563 0.557468,-0.52372 1.984806,-2.79914 2.474859,-3.94441 0.14425,-0.33701 0.466555,-1.08543 0.720093,-1.66314 0.253573,-0.57772 0.467842,-1.09315 0.471707,-1.1435 0.0042,-0.0504 0.251045,-0.50517 0.552614,-1.01213 0.301561,-0.50696 0.512769,-0.95676 0.471706,-1.00105 -0.0079,-0.009 -0.01794,-0.0116 -0.03546,-0.0112 z m -51.530629,0.33927 c -0.146687,0.0123 -0.04326,0.30333 0.289196,0.8647 0.679396,1.14719 0.764825,1.31807 1.69893,3.27691 1.150554,2.41315 1.878455,3.60511 2.73864,4.49128 0.80453,0.82891 2.261344,1.70973 3.113719,1.88218 0.318613,0.0645 0.695049,0.31173 0.695049,0.31173 0,0 -0.814373,-0.0127 -1.237614,-0.12024 -0.70586,-0.14891 -5.511564,-0.66444 -8.03304,-0.85896 -3.210805,-0.24771 -5.904256,-1.28894 -7.647935,-2.96555 -0.968592,-0.93129 -1.317398,-0.96339 -0.709723,-0.0655 0.210987,0.31176 0.535751,0.79721 0.720095,1.08338 1.501979,1.986 3.510849,3.81269 5.70025,4.79763 0.214781,0.2106 1.087866,0.53705 2.424064,0.90297 1.451166,0.39742 4.017024,0.43055 6.319051,0.082 0.963457,-0.1459 1.817688,-0.3086 1.896503,-0.36111 0.07877,-0.0525 0.489277,-0.16538 0.913009,-0.24625 0.42374,-0.0809 1.318756,-0.31562 1.988131,-0.52503 0.66941,-0.20941 1.978393,-0.55599 2.910775,-0.77163 l 1.693952,-0.3937 -0.801346,-0.21903 c -0.44149,-0.12136 -1.040755,-0.33312 -1.333895,-0.47028 -1.395549,-0.61198 -2.879879,-1.02827 -4.092553,-2.07903 -0.312393,-0.25207 -1.228762,-1.14667 -2.033591,-1.98598 -2.148137,-2.23979 -4.265228,-4.32403 -5.375633,-5.29009 -1.049477,-0.91308 -1.647365,-1.35612 -1.836034,-1.34035 z m 30.732414,11.10024 c -0.872924,0.015 -1.820292,0.10545 -2.824895,0.29563 -0.220683,0.0418 -0.667242,0.13668 -0.988875,0.25159 -0.993535,0.35502 -1.26391,0.36499 -1.891481,0.0655 -0.496723,-0.23706 -1.197978,-0.44805 -3.854581,-0.45383 -1.548483,0.0284 -3.054145,0.0958 -4.513466,0.65639 -0.891484,0.19099 -1.718995,0.64679 -2.586163,0.92445 -0.557871,0.24512 -1.459778,0.63171 -2.003174,0.85358 -0.543368,0.22189 -1.460581,0.64079 -2.038938,0.93556 -1.397252,0.71216 -3.305321,1.22839 -5.051036,1.36216 -1.791906,0.13731 -3.775597,-0.26851 -5.421442,-1.10518 -1.268343,-0.64474 -1.348933,-0.67031 -1.348933,-0.42663 1.480888,1.90794 3.451935,3.14198 5.563183,4.0593 0.686855,0.39335 3.665963,0.87786 4.579679,0.74406 1.054586,-0.15442 2.954497,-0.57562 3.357084,-0.74406 1.386061,-0.57997 1.993353,-0.89675 3.21537,-1.6739 1.094444,-0.71826 2.114948,-1.52983 3.184584,-2.27588 1.752177,-1.4433 4.086268,-2.28736 5.360602,-1.94231 0.414154,0.11213 0.342611,0.17732 -1.00427,0.91908 -1.920506,1.05765 -3.378746,2.09802 -5.340192,3.80768 -1.935952,1.68756 -3.224235,3.00689 -3.149159,3.22789 0.03013,0.0888 0.420892,0.47922 0.867182,0.86969 0.446296,0.39048 0.892932,0.71345 0.993902,0.71687 0.100964,0.003 0.394416,-0.29064 0.649215,-0.65101 0.881732,-1.24705 4.33922,-4.74555 5.233562,-5.29583 0.875008,-0.56511 1.590925,-1.38038 2.530696,-1.84353 0.355672,-0.18903 0.747871,-0.44334 0.867182,-0.56369 0.491757,-0.49608 2.001303,0.041 3.438704,1.22008 0.223134,0.18305 0.697688,0.56739 1.054718,0.85895 1.084644,0.88573 1.901067,1.60625 2.662409,2.34137 0.917415,0.89388 1.65541,1.87486 2.586545,2.73006 0.620029,0.68777 1.064081,1.04339 1.257643,1.00676 0.396576,-0.075 1.686382,-1.52462 1.592302,-1.78914 -0.171295,-0.48151 -2.744722,-2.77941 -4.772226,-4.26186 -0.75871,-0.55475 -1.415965,-1.05486 -1.460588,-1.11054 -0.0446,-0.0557 -0.300211,-0.22639 -0.567982,-0.37723 -0.267778,-0.15085 -1.023254,-0.58703 -1.678535,-0.96849 l -1.1918,-0.69468 0.522514,-0.1095 c 1.502164,-0.32408 2.751544,0.0959 4.893559,1.64668 0.862258,0.64858 1.664517,1.36367 2.596552,1.88756 2.545447,1.81799 5.165229,2.68586 8.094245,2.68604 2.33394,9e-5 3.822508,-0.44768 6.080696,-1.82707 1.450047,-0.88577 3.682844,-2.95297 3.453366,-3.20034 -0.05077,-0.0548 -0.52115,0.15344 -1.04471,0.45953 -1.687061,0.98629 -2.924744,1.26639 -5.578558,1.26375 -1.976889,-0.0197 -3.824558,-0.34861 -5.639413,-1.25301 -1.480646,-0.78502 -3.051125,-1.39427 -4.58433,-2.04073 -0.582603,-0.29656 -1.211739,-0.39603 -1.826006,-0.59053 -0.944259,-0.31809 -2.283833,-0.5811 -3.90503,-0.59088 -0.121596,0 -0.245359,-0.002 -0.370058,0 z"
         style="fill:#ffffff;stroke-width:0.17642826;stroke:none"
         inkscape:connector-curvature="0" />
      <path
         sodipodi:nodetypes="cccccccccccscccscsscccccscccsccccccccccccsccccccscccsscscc"
         inkscape:connector-curvature="0"
         id="path997"
         d="m 45.705183,245.58729 c -2.305335,-9.77493 -4.136148,-17.83231 -4.068455,-17.90526 0.06767,-0.0729 1.996137,0.99601 4.285529,2.37538 l 4.162482,2.50795 4.162558,-2.50795 c 2.28936,-1.37937 4.221489,-2.44828 4.293669,-2.37538 0.188963,0.19109 -8.216249,35.68567 -8.449481,35.68143 -0.107142,0 -2.080992,-8.00123 -4.386302,-17.77617 z m -10.034115,3.11232 c -3.892661,-0.99418 -7.141725,-1.87182 -7.220153,-1.95022 -0.348109,-0.34811 -4.678077,-7.6087 -4.590065,-7.69668 0.05402,-0.0541 2.379023,0.48098 5.166512,1.18901 2.787551,0.70805 5.262321,1.29128 5.499528,1.29606 0.321376,0.006 0.316314,-0.44204 -0.02002,-1.75979 l -0.451145,-1.76846 -7.809833,-1.95418 c -4.295478,-1.07481 -7.862161,-2.01427 -7.926095,-2.08771 -0.522961,-0.60106 -4.351903,-7.10197 -4.351903,-7.38896 0,-0.203 3.936159,0.62248 8.747033,1.8344 4.810856,1.21189 8.940432,2.20789 9.176781,2.21332 0.321771,0.008 0.320836,-0.48095 -0.0035,-1.94272 L 31.4546,226.73109 19.8673,223.83313 c -6.373221,-1.59389 -11.6347298,-2.9584 -11.6924152,-3.03225 -0.5804256,-0.74262 -4.3647299,-7.16397 -4.3647299,-7.40618 0,-0.41901 36.9812271,8.72849 37.1204351,9.18187 0.05866,0.19101 -0.73019,0.93984 -1.752966,1.66406 -1.142931,0.80924 -1.800429,1.53421 -1.705948,1.88107 0.08449,0.31038 1.371011,5.72787 2.85897,12.03889 1.48798,6.311 2.785757,11.6862 2.883992,11.94483 0.231072,0.60841 0.643314,0.68524 -7.543702,-1.40581 z m 21.56489,1.17435 c 0,-0.33823 1.27263,-5.93109 2.824265,-12.42848 l 2.821245,-11.81351 -0.838122,-0.58702 c -0.460986,-0.32288 -1.351023,-1.04716 -1.977846,-1.60941 -0.882301,-0.79148 -1.012242,-1.06796 -0.575365,-1.22451 0.90312,-0.32353 37.049149,-9.19387 37.134502,-9.1129 0.04252,0.0403 -0.973278,1.80483 -2.257308,3.92114 -2.02963,3.34529 -2.506524,3.89383 -3.651304,4.2 -0.724221,0.19372 -5.887787,1.48619 -11.474552,2.87226 -5.58682,1.38603 -10.210875,2.56166 -10.275652,2.61244 -0.06482,0.0508 -0.345782,0.95633 -0.62433,2.01232 -0.373146,1.41449 -0.391631,1.9174 -0.07026,1.91011 0.239888,-0.006 4.410728,-1.01105 9.268473,-2.23474 4.857752,-1.22363 8.886026,-2.17106 8.951772,-2.10538 0.09222,0.0923 -4.127555,7.07046 -4.64502,7.68136 -0.06219,0.0734 -3.627542,1.0129 -7.922985,2.08771 l -7.809809,1.95418 -0.451186,1.76846 c -0.336121,1.31775 -0.341219,1.76632 -0.02009,1.75979 0.237228,-0.005 2.712033,-0.58801 5.499548,-1.29606 2.787502,-0.70803 5.122288,-1.2333 5.188332,-1.16722 0.0972,0.0972 -4.193723,7.22169 -4.626584,7.68182 -0.06773,0.072 -3.351424,0.94127 -7.297095,1.9318 -6.153188,1.54465 -7.173534,1.71338 -7.170853,1.18584 z"
         style="fill:#ffffff;stroke:none;stroke-width:0.37621534"
         inkscape:export-xdpi="41"
         inkscape:export-ydpi="41" />
    </g>
  </g>
</svg>
