# 3ds Max Wavefront OBJ Exporter v0.97b - (c)2007 guruware
# File Created: 30.04.2011 13:23:34

#
# object Ammo_box
#

v  17.0000 0.0000 -10.3847
v  17.0000 0.0000 10.3847
v  -17.0000 0.0000 10.3847
v  -17.0000 0.0000 -10.3847
v  -17.0000 42.0000 10.3847
v  17.0000 42.0000 10.3847
v  17.0000 42.0000 -10.3847
v  -17.0000 42.0000 -10.3847
v  -14.4000 46.1765 65.0000
v  -21.1765 39.4000 65.0000
v  -21.1765 10.6000 65.0000
v  -14.4000 3.8235 65.0000
v  25.0000 34.0000 -10.3847
v  25.0000 34.0000 10.3847
v  25.0000 8.0000 10.3847
v  25.0000 8.0000 -10.3847
v  14.4000 46.1765 -65.0000
v  21.1765 39.4000 -65.0000
v  21.1765 10.6000 -65.0000
v  14.4000 3.8235 -65.0000
v  -25.0000 34.0000 10.3847
v  -25.0000 34.0000 -10.3847
v  -25.0000 8.0000 -10.3847
v  -25.0000 8.0000 10.3847
v  17.0000 0.0000 -60.0000
v  17.0000 0.0000 -19.2500
v  -17.0000 0.0000 -19.2500
v  -17.0000 0.0000 -60.0000
v  -17.0000 0.0000 60.0000
v  -17.0000 0.0000 19.2500
v  17.0000 0.0000 19.2500
v  17.0000 0.0000 60.0000
v  17.0000 50.0000 -19.2500
v  17.0000 50.0000 -60.0000
v  2.4554 50.0000 -19.2500
v  -17.0000 50.0000 19.2500
v  -17.0000 50.0000 60.0000
v  -2.4554 50.0000 19.2500
v  25.0000 42.0000 -60.0000
v  25.0000 42.0000 -19.2500
v  25.0000 8.0000 -19.2500
v  25.0000 8.0000 -60.0000
v  25.0000 8.0000 60.0000
v  25.0000 8.0000 19.2500
v  25.0000 42.0000 19.2500
v  25.0000 42.0000 60.0000
v  -25.0000 42.0000 60.0000
v  -25.0000 42.0000 19.2500
v  -25.0000 8.0000 19.2500
v  -25.0000 8.0000 60.0000
v  -25.0000 8.0000 -60.0000
v  -25.0000 8.0000 -19.2500
v  -25.0000 42.0000 -19.2500
v  -25.0000 42.0000 -60.0000
v  17.0000 50.0000 19.2500
v  17.0000 50.0000 60.0000
v  -17.0000 50.0000 -19.2500
v  -17.0000 50.0000 -60.0000
v  14.4000 3.8235 65.0000
v  21.1765 10.6000 65.0000
v  21.1765 39.4000 65.0000
v  14.4000 46.1765 65.0000
v  -14.4000 3.8235 -65.0000
v  -21.1765 10.6000 -65.0000
v  -21.1765 39.4000 -65.0000
v  -14.4000 46.1765 -65.0000
v  -4.4554 48.0000 -17.0337
v  4.4554 48.0000 -17.0337
v  4.4554 48.0000 17.0337
v  -4.4554 48.0000 17.0337
v  2.4554 46.0000 -14.8173
v  -2.4554 46.0000 -14.8173
v  -2.4554 46.0000 14.8173
v  2.4554 46.0000 14.8173
v  -2.4554 50.0000 -19.2500
v  2.4554 50.0000 19.2500
# 76 vertices

vn 0.3827 -0.9239 -0.0000
vn -0.3827 -0.9239 -0.0000
vn -0.3905 0.8470 -0.3607
vn 0.3905 0.8470 -0.3607
vn 0.3905 0.8470 0.3607
vn -0.3905 0.8470 0.3607
vn -0.1657 0.4563 0.8743
vn -0.4563 0.1657 0.8743
vn -0.4563 -0.1657 0.8743
vn -0.1657 -0.4563 0.8743
vn 0.9502 0.2959 0.0978
vn 0.9502 0.2959 -0.0978
vn 0.9239 -0.3827 -0.0000
vn 0.1657 0.4563 -0.8743
vn 0.4563 0.1657 -0.8743
vn 0.4563 -0.1657 -0.8743
vn 0.1657 -0.4563 -0.8743
vn -0.9502 0.2959 -0.0978
vn -0.9502 0.2959 0.0978
vn -0.9239 -0.3827 -0.0000
vn 0.3699 -0.8668 -0.3343
vn -0.3699 -0.8668 -0.3343
vn -0.3699 -0.8668 0.3343
vn 0.3699 -0.8668 0.3343
vn 0.3445 0.8823 0.3207
vn 0.3699 0.8668 -0.3343
vn 0.1042 0.9888 0.1068
vn -0.3445 0.8823 -0.3207
vn -0.3699 0.8668 0.3343
vn -0.1042 0.9888 -0.1068
vn 0.8668 0.3699 -0.3343
vn 0.8778 0.4328 0.2053
vn 0.8668 -0.3699 -0.3343
vn 0.8668 -0.3699 0.3343
vn 0.8778 0.4328 -0.2053
vn 0.8668 0.3699 0.3343
vn -0.8668 0.3699 0.3343
vn -0.8778 0.4328 -0.2053
vn -0.8668 -0.3699 0.3343
vn -0.8668 -0.3699 -0.3343
vn -0.8778 0.4328 0.2053
vn -0.8668 0.3699 -0.3343
vn 0.3445 0.8823 -0.3207
vn 0.3699 0.8668 0.3343
vn -0.3445 0.8823 0.3207
vn -0.3699 0.8668 -0.3343
vn 0.1657 -0.4563 0.8743
vn 0.4563 -0.1657 0.8743
vn 0.4563 0.1657 0.8743
vn 0.1657 0.4563 0.8743
vn -0.1657 -0.4563 -0.8743
vn -0.4563 -0.1657 -0.8743
vn -0.4563 0.1657 -0.8743
vn -0.1657 0.4563 -0.8743
vn -0.4020 0.7508 0.5240
vn 0.4020 0.7508 0.5240
vn 0.4020 0.7508 -0.5240
vn -0.4020 0.7508 -0.5240
vn 0.4966 -0.0286 0.8675
vn -0.4966 -0.0286 0.8675
vn -0.4966 -0.0286 -0.8675
vn 0.4966 -0.0286 -0.8675
vn -0.1042 0.9888 0.1068
vn 0.1042 0.9888 -0.1068
# 64 vertex normals

vt 0.6640 0.3837 0.6046
vt 0.5440 0.3837 0.6046
vt 0.5440 0.5264 0.6046
vt 0.6640 0.5264 0.6046
vt 0.5440 0.7368 0.4808
vt 0.5440 0.9246 0.4808
vt 0.6640 0.9246 0.4808
vt 0.6640 0.7368 0.4808
vt 0.0500 0.3473 0.0000
vt 0.0204 0.3178 0.0000
vt 0.0204 0.1923 0.0000
vt 0.0500 0.1628 0.0000
vt 0.6640 0.2259 0.5314
vt 0.5440 0.2259 0.5314
vt 0.5440 0.3386 0.6046
vt 0.6640 0.3386 0.6046
vt 0.0520 0.5667 0.0000
vt 0.0223 0.5370 0.0000
vt 0.0223 0.4106 0.0000
vt 0.0520 0.3809 0.0000
vt 0.5440 0.6842 0.5314
vt 0.6640 0.6842 0.5314
vt 0.6640 0.5715 0.6046
vt 0.5440 0.5715 0.6046
vt 0.9507 0.3837 0.6046
vt 0.7152 0.3837 0.6046
vt 0.7152 0.5264 0.6046
vt 0.9507 0.5264 0.6046
vt 0.2573 0.5264 0.6046
vt 0.4928 0.5264 0.6046
vt 0.4928 0.3837 0.6046
vt 0.2573 0.3837 0.6046
vt 0.7152 0.9021 0.6046
vt 0.9507 0.9021 0.6046
vt 0.7152 0.8424 0.5024
vt 0.4928 0.7593 0.6046
vt 0.2573 0.7593 0.6046
vt 0.4928 0.8189 0.5024
vt 0.9507 0.1959 0.6046
vt 0.7152 0.1959 0.6046
vt 0.7152 0.3386 0.6046
vt 0.9507 0.3386 0.6046
vt 0.2573 0.3386 0.6046
vt 0.4928 0.3386 0.6046
vt 0.4928 0.1959 0.6046
vt 0.2573 0.1959 0.6046
vt 0.2573 0.7142 0.6046
vt 0.4928 0.7142 0.6046
vt 0.4928 0.5715 0.6046
vt 0.2573 0.5715 0.6046
vt 0.9507 0.5715 0.6046
vt 0.7152 0.5715 0.6046
vt 0.7152 0.7142 0.6046
vt 0.9507 0.7142 0.6046
vt 0.2573 0.9471 0.6046
vt 0.4928 0.9471 0.6046
vt 0.4928 0.9021 0.6046
vt 0.2573 0.9021 0.6046
vt 0.7152 0.7593 0.6046
vt 0.9507 0.7593 0.6046
vt 0.5440 0.9771 0.5314
vt 0.7152 0.9471 0.6046
vt 0.9507 0.9471 0.6046
vt 0.6640 0.9771 0.5314
vt 0.2284 0.3837 0.5122
vt 0.2284 0.5264 0.5122
vt 0.2284 0.3386 0.5122
vt 0.2284 0.1959 0.5122
vt 0.2284 0.9021 0.5122
vt 0.2284 0.9471 0.5122
vt 0.2284 0.7593 0.5122
vt 0.2284 0.7142 0.5122
vt 0.2284 0.5715 0.5122
vt 0.9796 0.5264 0.5122
vt 0.9796 0.3837 0.5122
vt 0.9796 0.5715 0.5122
vt 0.9796 0.7142 0.5122
vt 0.9796 0.7593 0.5122
vt 0.9796 0.9021 0.5122
vt 0.9796 0.9471 0.5122
vt 0.9796 0.3386 0.5122
vt 0.9796 0.1959 0.5122
vt 0.7024 0.8078 0.4686
vt 0.7024 0.8535 0.4686
vt 0.5056 0.8535 0.4686
vt 0.5056 0.8078 0.4686
vt 0.6896 0.8446 0.4229
vt 0.6896 0.8167 0.4229
vt 0.5184 0.8167 0.4229
vt 0.5184 0.8446 0.4229
vt 0.0994 0.7000 0.0000
vt 0.0994 0.8769 0.0000
vt 0.0700 0.8769 0.0000
vt 0.0700 0.7000 0.0000
vt 0.1624 0.6735 0.0000
vt 0.1624 0.9034 0.0000
vt 0.1331 0.9034 0.0000
vt 0.1331 0.6735 0.0000
vt 0.7152 0.8189 0.5024
vt 0.4928 0.8424 0.5024
vt 0.1793 0.6867 0.0000
vt 0.1793 0.8901 0.0000
vt 0.0531 0.8901 0.0000
vt 0.0531 0.6867 0.0000
vt 0.1162 0.6867 0.0000
vt 0.1162 0.8901 0.0000
vt 0.1755 0.3473 0.0000
vt 0.1755 0.1628 0.0000
vt 0.2050 0.3178 0.0000
vt 0.2050 0.1923 0.0000
vt 0.1784 0.5667 0.0000
vt 0.1784 0.3809 0.0000
vt 0.2081 0.5370 0.0000
vt 0.2081 0.4106 0.0000
# 114 texture coords

g Ammo_box
s 1
f 1/1/1 2/2/1 3/3/2 4/4/2 
f 5/5/3 6/6/4 7/7/5 8/8/6 
f 9/9/7 10/10/8 11/11/9 12/12/10 
f 13/13/11 14/14/12 15/15/13 16/16/13 
f 17/17/14 18/18/15 19/19/16 20/20/17 
f 21/21/18 22/22/19 23/23/20 24/24/20 
f 25/25/21 26/26/1 27/27/2 28/28/22 
f 29/29/23 30/30/2 31/31/1 32/32/24 
f 33/33/25 34/34/26 35/35/27 
f 36/36/28 37/37/29 38/38/30 
f 39/39/31 40/40/32 41/41/13 42/42/33 
f 43/43/34 44/44/13 45/45/35 46/46/36 
f 47/47/37 48/48/38 49/49/20 50/50/39 
f 51/51/40 52/52/20 53/53/41 54/54/42 
f 26/26/1 1/1/1 4/4/2 27/27/2 
f 30/30/2 3/3/2 2/2/1 31/31/1 
f 41/41/13 40/40/32 13/13/11 16/16/13 
f 44/44/13 15/15/13 14/14/12 45/45/35 
f 49/49/20 48/48/38 21/21/18 24/24/20 
f 52/52/20 23/23/20 22/22/19 53/53/41 
f 50/50/39 49/49/20 30/30/2 29/29/23 
f 42/42/33 41/41/13 26/26/1 25/25/21 
f 46/55/36 45/56/35 55/57/43 56/58/44 
f 54/54/42 53/53/41 57/59/45 58/60/46 
f 49/49/20 24/24/20 3/3/2 30/30/2 
f 52/52/20 51/51/40 28/28/22 27/27/2 
f 41/41/13 16/16/13 1/1/1 26/26/1 
f 44/44/13 43/43/34 32/32/24 31/31/1 
f 45/56/35 14/61/12 6/6/4 55/57/43 
f 40/62/32 39/63/31 34/34/26 33/33/25 
f 53/53/41 22/22/19 8/8/6 57/59/45 
f 48/48/38 47/47/37 37/37/29 36/36/28 
f 24/24/20 23/23/20 4/4/2 3/3/2 
f 23/23/20 52/52/20 27/27/2 4/4/2 
f 16/16/13 15/15/13 2/2/1 1/1/1 
f 15/15/13 44/44/13 31/31/1 2/2/1 
f 14/61/12 13/64/11 7/7/5 6/6/4 
f 7/7/5 13/64/11 40/62/32 33/33/25 
f 22/22/19 21/21/18 5/5/3 8/8/6 
f 5/5/3 21/21/18 48/48/38 36/36/28 
f 32/32/24 59/65/47 12/66/10 29/29/23 
f 43/43/34 60/67/48 59/65/47 32/32/24 
f 46/46/36 61/68/49 60/67/48 43/43/34 
f 56/58/44 62/69/50 61/70/49 46/55/36 
f 37/37/29 9/71/7 62/69/50 56/58/44 
f 47/47/37 10/72/8 9/71/7 37/37/29 
f 50/50/39 11/73/9 10/72/8 47/47/37 
f 29/29/23 12/66/10 11/73/9 50/50/39 
f 28/28/22 63/74/51 20/75/17 25/25/21 
f 51/51/40 64/76/52 63/74/51 28/28/22 
f 54/54/42 65/77/53 64/76/52 51/51/40 
f 58/60/46 66/78/54 65/77/53 54/54/42 
f 34/34/26 17/79/14 66/78/54 58/60/46 
f 39/63/31 18/80/15 17/79/14 34/34/26 
f 42/42/33 19/81/16 18/82/15 39/39/31 
f 25/25/21 20/75/17 19/81/16 42/42/33 
f 57/59/45 8/8/6 67/83/55 
f 7/7/5 33/33/25 68/84/56 
f 55/57/43 6/6/4 69/85/57 
f 5/5/3 36/36/28 70/86/58 
f 7/7/5 71/87/59 72/88/60 8/8/6 
f 5/5/3 73/89/61 74/90/62 6/6/4 
f 71/91/59 74/92/62 73/93/61 72/94/60 
f 75/95/63 38/96/30 76/97/64 35/98/27 
f 33/33/25 35/35/27 68/84/56 
f 57/59/45 67/83/55 75/99/63 
f 36/36/28 38/38/30 70/86/58 
f 55/57/43 69/85/57 76/100/64 
f 67/83/55 8/8/6 72/88/60 
f 68/84/56 71/87/59 7/7/5 
f 69/85/57 6/6/4 74/90/62 
f 70/86/58 73/89/61 5/5/3 
f 67/101/55 70/102/58 38/96/30 75/95/63 
f 72/94/60 73/93/61 70/103/58 67/104/55 
f 68/105/56 69/106/57 74/92/62 71/91/59 
f 35/98/27 76/97/64 69/106/57 68/105/56 
f 56/58/44 55/57/43 76/100/64 
f 56/58/44 76/100/64 38/38/30 37/37/29 
f 75/99/63 35/35/27 34/34/26 58/60/46 
f 58/60/46 57/59/45 75/99/63 
f 62/107/50 9/9/7 12/12/10 59/108/47 
f 61/109/49 62/107/50 59/108/47 60/110/48 
f 66/111/54 17/17/14 20/20/17 63/112/51 
f 65/113/53 66/111/54 63/112/51 64/114/52 
# 68 polygons - 16 triangles

