# Blender v2.64 (sub 0) OBJ File: ''
# www.blender.org
o Icosphere_Icosphere.001
v 0.243502 -0.748412 -0.029725
v 0.626683 -0.325203 0.252546
v 0.077412 -0.420887 0.585365
v -0.590853 -0.541411 -0.000594
v 0.037091 -0.490517 -0.691182
v 0.611288 -0.358775 -0.266581
v 0.456944 0.189208 0.567437
v -0.458432 0.323434 0.498061
v -0.538917 0.382781 -0.601880
v 0.482045 0.213585 -0.630220
v 0.771786 0.168265 -0.010517
v 0.270640 0.864101 -0.007847
v 0.353273 -0.642968 0.046214
v 0.470042 -0.526870 0.134236
v 0.575792 -0.437404 0.214264
v 0.517069 -0.336687 0.318364
v 0.389500 -0.362676 0.403836
v 0.229720 -0.375711 0.482784
v 0.111481 -0.466465 0.404622
v 0.158157 -0.572711 0.247931
v 0.199231 -0.692063 0.102255
v 0.363701 -0.708498 -0.111256
v 0.484285 -0.595275 -0.188242
v 0.582411 -0.477013 -0.247816
v 0.662196 -0.379352 -0.148964
v 0.706680 -0.385673 -0.005590
v 0.702390 -0.379093 0.154230
v -0.096215 -0.554485 0.602799
v -0.364682 -0.637723 0.484882
v -0.551534 -0.626141 0.239504
v -0.444874 -0.751063 -0.001401
v -0.174409 -0.803755 -0.020444
v 0.066552 -0.804489 -0.026157
v -0.491891 -0.571575 -0.212675
v -0.330077 -0.577690 -0.428716
v -0.157453 -0.571385 -0.637329
v 0.069651 -0.658729 -0.583695
v 0.123822 -0.767312 -0.392377
v 0.191868 -0.783073 -0.180752
v 0.224115 -0.488822 -0.623570
v 0.411269 -0.457724 -0.522403
v 0.545248 -0.406853 -0.390720
v 0.667291 -0.244217 -0.208229
v 0.788406 -0.114994 -0.163769
v 0.832103 0.035643 -0.083368
v 0.772974 0.028679 0.081369
v 0.817773 -0.114505 0.179740
v 0.743028 -0.248113 0.238701
v 0.614456 -0.216728 0.341489
v 0.603751 -0.091917 0.464879
v 0.543568 0.058810 0.546453
v 0.379170 0.062126 0.645721
v 0.263857 -0.109043 0.652956
v 0.155239 -0.280898 0.638116
v -0.071263 -0.323897 0.693015
v -0.249530 -0.110854 0.673025
v -0.420129 0.133479 0.687955
v -0.657542 0.152823 0.470206
v -0.718327 -0.111026 0.317822
v -0.735845 -0.384689 0.157307
v -0.648234 -0.353994 -0.131601
v -0.637558 -0.107726 -0.280161
v -0.619118 0.148432 -0.454863
v -0.385107 0.134610 -0.635749
v -0.239537 -0.109859 -0.682525
v -0.105571 -0.340988 -0.743773
v 0.136110 -0.315505 -0.709384
v 0.254800 -0.123858 -0.696012
v 0.361813 0.051245 -0.630576
v 0.528613 0.049498 -0.550300
v 0.582374 -0.111431 -0.481001
v 0.596364 -0.252223 -0.361989
v 0.737232 0.189240 0.125827
v 0.664193 0.206361 0.299878
v 0.571170 0.214639 0.467317
v 0.296700 0.263020 0.651427
v 0.038483 0.308839 0.633685
v -0.224495 0.331362 0.589606
v -0.603281 0.417853 0.297827
v -0.668618 0.465940 0.002109
v -0.661159 0.460608 -0.338887
v -0.246690 0.363240 -0.630265
v 0.029773 0.367365 -0.745301
v 0.299520 0.281750 -0.685881
v 0.571879 0.233236 -0.463375
v 0.702154 0.253845 -0.312672
v 0.781648 0.233634 -0.150791
v 0.754501 0.342124 -0.017582
v 0.655042 0.554981 -0.017713
v 0.498720 0.777297 -0.009209
v 0.321201 0.708333 0.175398
v 0.380240 0.534903 0.360503
v 0.435170 0.360045 0.511261
v 0.060105 0.809919 0.122615
v -0.161633 0.715043 0.279573
v -0.341185 0.524389 0.410329
v 0.063065 0.844534 -0.146021
v -0.169779 0.747066 -0.303090
v -0.399853 0.612378 -0.492157
v 0.361622 0.886458 -0.249229
v 0.435605 0.688799 -0.476374
v 0.470464 0.419866 -0.588594
v 0.280938 -0.472789 0.349662
v 0.322077 -0.564147 0.189388
v 0.436196 -0.450506 0.273095
v 0.603664 -0.483661 -0.099524
v 0.616608 -0.483919 0.075089
v 0.480078 -0.579707 -0.024158
v -0.267475 -0.708081 0.203097
v -0.002208 -0.724091 0.143067
v -0.053721 -0.575762 0.328086
v -0.128373 -0.766971 -0.471087
v -0.034530 -0.822010 -0.219658
v -0.336523 -0.822109 -0.254110
v 0.461999 -0.554304 -0.360820
v 0.332028 -0.712358 -0.293349
v 0.298989 -0.672346 -0.526211
v 0.861257 -0.118045 0.000693
v 0.819615 -0.278596 0.096204
v 0.746822 -0.261138 -0.077688
v 0.450300 -0.090703 0.555996
v 0.329897 -0.253258 0.532104
v 0.501121 -0.236668 0.443006
v -0.520599 -0.111799 0.547589
v -0.571619 -0.370078 0.402450
v -0.338396 -0.343060 0.579008
v -0.456624 -0.106543 -0.517363
v -0.306026 -0.357437 -0.582794
v -0.513567 -0.368673 -0.373506
v 0.457887 -0.118368 -0.628939
v 0.516637 -0.285981 -0.525112
v 0.351937 -0.316155 -0.667859
v 0.657991 0.058457 0.420853
v 0.707654 -0.102124 0.322005
v 0.738352 0.040608 0.236331
v -0.129378 0.131193 0.778421
v 0.032964 -0.126995 0.782886
v 0.169501 0.098063 0.745020
v -0.814571 0.196789 -0.186471
v -0.821460 -0.118467 0.001599
v -0.812477 0.201167 0.184430
v 0.143842 0.096180 -0.705840
v 0.011578 -0.119459 -0.733889
v -0.137251 0.133781 -0.727677
v 0.780875 0.058426 -0.246499
v 0.679446 -0.112171 -0.307358
v 0.646531 0.063295 -0.407659
v 0.531142 0.584629 0.179581
v 0.559980 0.389038 0.353243
v 0.673794 0.377891 0.155779
v 0.134875 0.648770 0.337700
v -0.064252 0.512456 0.491228
v 0.213932 0.441090 0.512876
v -0.213264 0.832291 -0.003369
v -0.466095 0.672567 -0.170381
v -0.461818 0.663739 0.163462
v 0.137410 0.808054 -0.443182
v 0.227851 0.537075 -0.619397
v -0.082136 0.568439 -0.540436
v 0.617961 0.722077 -0.246768
v 0.726570 0.441392 -0.192691
v 0.691391 0.504660 -0.477336
vt 0.999996 0.073554
vt 0.852104 0.100339
vt 0.680201 0.014572
vt 0.745262 0.345830
vt 0.758986 0.268193
vt 0.790912 0.346776
vt 1.177681 0.079752
vt 1.068049 0.142170
vt 0.960340 0.150181
vt 0.760166 0.421725
vt 0.530664 0.280021
vt 0.583441 0.267300
vt 0.555334 0.349643
vt 0.307451 0.322228
vt 0.351517 0.284958
vt 0.340663 0.377431
vt 0.116188 0.405765
vt 0.155042 0.370901
vt 0.145213 0.463309
vt 0.932330 0.418907
vt 0.973713 0.404944
vt 0.952342 0.489391
vt 0.712431 0.399566
vt 0.502195 0.345643
vt 0.291550 0.397782
vt 0.098486 0.478725
vt 0.905369 0.479775
vt 0.616189 0.594235
vt 0.655042 0.629099
vt 0.608199 0.673728
vt 0.432330 0.581093
vt 0.473713 0.595056
vt 0.437160 0.661406
vt 0.245262 0.654170
vt 0.290912 0.653224
vt 0.258986 0.731807
vt 0.030664 0.719979
vt 0.083441 0.732700
vt 0.034009 0.800661
vt 0.807451 0.677772
vt 0.851517 0.715042
vt 0.793642 0.755723
vt 0.534009 0.199339
vt 0.543427 0.104296
vt 0.616683 0.183371
vt 0.701508 0.108516
vt 0.646744 0.275470
vt 0.703237 0.212389
vt 0.703877 0.306479
vt 0.785848 0.179094
vt 0.893078 0.388546
vt 0.937160 0.338594
vt 0.843530 0.361393
vt 0.887314 0.294991
vt 0.822241 0.267813
vt 0.945083 0.244007
vt 0.876808 0.192093
vt 0.293642 0.244277
vt 0.264104 0.155092
vt 0.355682 0.191029
vt 0.177681 0.079752
vt 0.368850 0.087666
vt 0.412626 0.259318
vt 0.451465 0.171416
vt 0.478397 0.259496
vt 0.108199 0.326273
vt 0.094752 0.233096
vt 0.157727 0.276916
vt 0.068049 0.142170
vt 0.162972 0.173244
vt 0.205269 0.339565
vt 0.225674 0.244850
vt 0.259788 0.322831
vt 0.990569 0.315880
vt 1.018428 0.220438
vt 1.023654 0.396447
vt 1.052966 0.311191
vt 0.052966 0.311191
vt 0.073985 0.397486
vt 0.023654 0.396447
vt 0.018428 0.220438
vt 0.791550 0.602218
vt 0.840663 0.622569
vt 0.775685 0.512030
vt 0.824631 0.533721
vt 0.807934 0.435289
vt 0.874229 0.552227
vt 0.859529 0.456611
vt 0.598486 0.521275
vt 0.645213 0.536691
vt 0.578143 0.434880
vt 0.628516 0.448677
vt 0.608085 0.352261
vt 0.678072 0.467410
vt 0.664497 0.370891
vt 0.405369 0.520225
vt 0.452342 0.510609
vt 0.374229 0.447773
vt 0.424647 0.434295
vt 0.390512 0.352641
vt 0.475738 0.427269
vt 0.448814 0.340712
vt 0.212431 0.600434
vt 0.260166 0.578275
vt 0.178072 0.532590
vt 0.226993 0.510783
vt 0.190802 0.435850
vt 0.275685 0.487970
vt 0.242837 0.411730
vt 0.002195 0.654357
vt 0.055334 0.650357
vt 0.975738 0.572731
vt 1.027080 0.572529
vt 1.002195 0.654357
vt 0.999364 0.484413
vt 0.027080 0.572529
vt 0.078143 0.565120
vt 1.051350 0.480499
vt 0.051350 0.480499
vt 0.690802 0.564150
vt 0.726993 0.489217
vt 0.705269 0.660435
vt 0.742837 0.588269
vt 0.759788 0.677169
vt 0.499364 0.515587
vt 0.527080 0.427471
vt 0.523654 0.603553
vt 0.551350 0.519500
vt 0.573985 0.602514
vt 0.307934 0.564711
vt 0.324631 0.466280
vt 0.343530 0.638607
vt 0.359529 0.543389
vt 0.393078 0.611454
vt 0.108085 0.647739
vt 0.128516 0.551323
vt 0.146744 0.724530
vt 0.164496 0.629109
vt 0.203877 0.693521
vt 0.890512 0.647359
vt 0.924647 0.565705
vt 0.912625 0.740682
vt 0.948813 0.659288
vt 0.978397 0.740504
vt 1.030664 0.719979
vt 0.568049 0.857830
vt 0.677681 0.920248
vt 0.499996 0.926446
vt 0.594752 0.766904
vt 0.662971 0.826756
vt 0.657727 0.723084
vt 0.764104 0.844908
vt 0.725673 0.755151
vt 0.460340 0.849819
vt 0.445084 0.755993
vt 0.518428 0.779563
vt 0.490569 0.684120
vt 0.552966 0.688810
vt 0.352104 0.899661
vt 0.285848 0.820906
vt 0.376808 0.807908
vt 0.322241 0.732187
vt 0.387314 0.705009
vt 0.180201 0.985428
vt 0.043427 0.895704
vt 0.201508 0.891484
vt 0.116683 0.816629
vt 0.203237 0.787611
vt 0.868849 0.912334
vt 0.855682 0.808972
vt 1.180201 0.985428
vt 1.043427 0.895704
vt 0.951465 0.828585
vt 1.034009 0.800661
vn 0.375866 -0.877224 0.298532
vn 0.480728 -0.771081 0.417463
vn 0.312265 -0.776513 0.547227
vn 0.484207 -0.519364 0.704123
vn 0.448134 -0.674947 0.586169
vn 0.643300 -0.658010 0.391339
vn 0.154515 -0.952147 0.263649
vn 0.294229 -0.955077 -0.035188
vn 0.552416 -0.825617 0.114658
vn 0.660817 -0.395276 0.637989
vn 0.488235 -0.624012 0.610065
vn 0.410535 -0.695914 0.589160
vn 0.445265 -0.489395 0.749779
vn -0.813654 -0.539689 -0.215979
vn -0.654836 -0.702445 0.278817
vn -0.899838 -0.411359 0.145054
vn 0.136174 -0.387555 -0.911710
vn -0.397137 -0.484451 -0.779443
vn -0.234016 -0.149083 -0.960723
vn 0.883114 -0.246406 -0.399182
vn 0.807794 -0.375927 -0.453993
vn 0.875729 -0.265938 -0.402936
vn 0.576220 -0.496170 0.649403
vn -0.060274 -0.369182 0.927366
vn -0.832484 -0.386029 -0.397412
vn 0.191839 -0.155461 -0.969024
vn 0.812708 -0.347667 -0.467513
vn 0.554460 0.263527 0.789361
vn 0.719810 0.325846 0.612903
vn 0.480575 0.537584 0.692801
vn -0.452223 0.567309 0.688162
vn -0.201239 0.602710 0.772149
vn -0.350719 0.633778 0.689413
vn -0.549425 0.231056 -0.802942
vn -0.811640 0.490341 -0.317423
vn -0.312449 0.736320 -0.600116
vn 0.599109 -0.009095 -0.800592
vn 0.278573 0.084597 -0.956664
vn 0.441511 0.206122 -0.873226
vn 0.956999 0.184606 0.223640
vn 0.967345 0.201300 -0.153813
vn 0.943327 0.274606 0.186254
vn 0.355449 -0.823389 0.442305
vn 0.235054 -0.755333 0.611713
vn 0.286172 -0.755211 0.589648
vn 0.343608 -0.766289 0.542863
vn 0.435621 -0.636006 0.636952
vn 0.392315 -0.704520 0.591327
vn 0.498276 -0.571978 0.651540
vn 0.399792 -0.811335 0.426466
vn 0.849086 -0.400739 -0.344127
vn 0.803583 -0.515915 -0.296701
vn 0.779778 -0.606403 -0.155522
vn 0.727378 -0.679373 -0.096652
vn 0.586657 -0.789239 0.181433
vn 0.691671 -0.716086 -0.093570
vn 0.589007 -0.786981 0.183508
vn -0.553209 -0.830195 0.068575
vn -0.051668 -0.965545 0.254982
vn -0.016511 -0.925596 0.378124
vn 0.142888 -0.823908 0.548387
vn -0.288797 -0.741172 0.605976
vn 0.299417 -0.856044 0.421277
vn 0.161870 -0.722465 0.672170
vn 0.110843 -0.660939 -0.742180
vn 0.192541 -0.931974 -0.307138
vn -0.203070 -0.813318 -0.545183
vn 0.071017 -0.994842 -0.072085
vn -0.674306 -0.435377 -0.596423
vn -0.471877 -0.837519 -0.275430
vn -0.790674 -0.466903 -0.395947
vn 0.726402 -0.581469 -0.366314
vn 0.528642 -0.831874 -0.168798
vn 0.645741 -0.426008 -0.633625
vn 0.461196 -0.657460 -0.595813
vn 0.335063 -0.381359 -0.861538
vn 0.925443 0.289529 0.244240
vn 0.988556 0.146733 -0.034608
vn 0.909513 0.082400 0.407392
vn 0.996124 -0.050813 -0.071749
vn 0.880032 -0.464034 0.101047
vn 0.830836 -0.307749 -0.463607
vn 0.801965 -0.433485 -0.410962
vn 0.479598 -0.044221 0.876339
vn 0.613453 0.013916 0.789575
vn 0.468551 -0.312510 0.826289
vn 0.469985 -0.351604 0.809595
vn 0.453169 -0.521500 0.722922
vn 0.653127 -0.310526 0.690603
vn 0.514054 -0.540208 0.666219
vn -0.747978 0.186377 0.636982
vn -0.458022 0.179754 0.870540
vn -0.854946 -0.171331 0.489547
vn -0.601886 -0.237159 0.762535
vn -0.702414 -0.305551 0.642811
vn -0.366192 -0.241829 0.898526
vn -0.440443 -0.252205 0.861599
vn -0.444807 -0.065920 -0.893185
vn -0.764092 -0.165502 -0.623493
vn -0.435957 -0.087039 -0.895718
vn -0.675710 -0.216559 -0.704611
vn -0.648305 -0.250801 -0.718833
vn -0.797235 -0.271523 -0.539109
vn -0.758629 -0.325968 -0.564043
vn 0.692068 0.000732 -0.721824
vn 0.345714 -0.004547 -0.938292
vn 0.822993 -0.135105 -0.551714
vn 0.557085 0.009278 -0.830378
vn 0.770379 -0.281320 -0.572131
vn 0.245033 0.044527 -0.968474
vn 0.422468 -0.268197 -0.865780
vn 0.834101 0.111820 0.540117
vn 0.783197 -0.144566 0.604724
vn 0.864803 0.298471 0.403699
vn 0.908963 0.222449 0.352489
vn 0.935392 0.199500 0.291910
vn -0.138279 0.255684 0.956816
vn 0.101657 -0.243904 0.964446
vn 0.030641 0.581835 0.812708
vn 0.280068 0.165410 0.945616
vn 0.304758 0.436445 0.846522
vn -0.947691 0.104129 -0.301614
vn -0.965361 -0.228187 -0.126286
vn -0.795984 0.599475 0.083712
vn -0.931822 0.244118 0.268410
vn -0.663167 0.575732 0.478256
vn 0.188788 -0.016144 -0.981872
vn 0.021149 0.020417 -0.999542
vn -0.051149 0.306894 -0.950346
vn -0.201086 0.046480 -0.978454
vn -0.215461 0.344005 -0.913877
vn 0.874020 -0.014893 -0.485611
vn 0.802393 -0.292398 -0.520249
vn 0.873867 0.018555 -0.485794
vn 0.783715 -0.001343 -0.621082
vn 0.773797 -0.047884 -0.631581
vn 0.297861 0.753563 0.585986
vn 0.549791 0.750237 0.367199
vn 0.109043 0.939848 0.323679
vn 0.379864 0.684317 0.622364
vn 0.614734 0.600177 0.511673
vn 0.700278 0.488052 0.520920
vn 0.842555 0.464400 0.272683
vn 0.842799 0.371166 0.389691
vn 0.028169 0.913572 0.405652
vn -0.152440 0.806116 0.571764
vn 0.158635 0.748375 0.644002
vn -0.044130 0.641041 0.766198
vn 0.167821 0.655293 0.736473
vn -0.161168 0.984741 -0.065371
vn -0.269265 0.879971 -0.391278
vn -0.272103 0.960234 0.062258
vn -0.561480 0.817133 -0.130314
vn -0.561418 0.759911 0.327586
vn 0.236183 0.953001 -0.189550
vn 0.337321 0.625660 -0.703360
vn -0.119663 0.804285 -0.582049
vn 0.121525 0.480056 -0.868770
vn -0.185003 0.621876 -0.760918
vn 0.737907 0.664632 -0.117069
vn 0.963622 0.262337 -0.050783
vn 0.774621 0.209754 -0.596606
s 1
f 1/1/1 13/2/2 21/3/3
f 2/4/4 15/5/5 27/6/6
f 1/1/1 21/3/3 33/7/7
f 1/1/1 33/7/7 39/8/8
f 1/1/1 39/8/8 22/9/9
f 2/4/4 27/6/6 48/10/10
f 3/11/11 18/12/12 54/13/13
f 4/14/14 30/15/15 60/16/16
f 5/17/17 36/18/18 66/19/19
f 6/20/20 42/21/21 72/22/22
f 2/4/4 48/10/10 49/23/23
f 3/11/11 54/13/13 55/24/24
f 4/14/14 60/16/16 61/25/25
f 5/17/17 66/19/19 67/26/26
f 6/20/20 72/22/22 43/27/27
f 7/28/28 75/29/29 93/30/30
f 8/31/31 78/32/32 96/33/33
f 9/34/34 81/35/35 99/36/36
f 10/37/37 84/38/38 102/39/39
f 11/40/40 87/41/41 88/42/42
f 19/43/43 18/12/12 3/11/11
f 20/44/44 103/45/45 19/43/43
f 21/3/3 104/46/46 20/44/44
f 19/43/43 103/45/45 18/12/12
f 103/45/45 17/47/47 18/12/12
f 20/44/44 104/46/46 103/45/45
f 104/46/46 105/48/48 103/45/45
f 103/45/45 105/48/48 17/47/47
f 105/48/48 16/49/49 17/47/47
f 21/3/3 13/2/2 104/46/46
f 13/2/2 14/50/50 104/46/46
f 104/46/46 14/50/50 105/48/48
f 14/50/50 15/5/5 105/48/48
f 105/48/48 15/5/5 16/49/49
f 15/5/5 2/4/4 16/49/49
f 25/51/51 24/52/52 6/20/20
f 26/53/53 106/54/54 25/51/51
f 27/6/6 107/55/55 26/53/53
f 25/51/51 106/54/54 24/52/52
f 106/54/54 23/56/56 24/52/52
f 26/53/53 107/55/55 106/54/54
f 107/55/55 108/57/57 106/54/54
f 106/54/54 108/57/57 23/56/56
f 108/57/57 22/9/9 23/56/56
f 27/6/6 15/5/5 107/55/55
f 15/5/5 14/50/50 107/55/55
f 107/55/55 14/50/50 108/57/57
f 14/50/50 13/2/2 108/57/57
f 108/57/57 13/2/2 22/9/9
f 13/2/2 1/1/1 22/9/9
f 31/58/58 30/15/15 4/14/14
f 32/59/59 109/60/60 31/58/58
f 33/61/7 110/62/61 32/59/59
f 31/58/58 109/60/60 30/15/15
f 109/60/60 29/63/62 30/15/15
f 32/59/59 110/62/61 109/60/60
f 110/62/61 111/64/63 109/60/60
f 109/60/60 111/64/63 29/63/62
f 111/64/63 28/65/64 29/63/62
f 33/7/7 21/3/3 110/62/61
f 21/3/3 20/44/44 110/62/61
f 110/62/61 20/44/44 111/64/63
f 20/44/44 19/43/43 111/64/63
f 111/64/63 19/43/43 28/65/64
f 19/43/43 3/11/11 28/65/64
f 37/66/65 36/18/18 5/17/17
f 38/67/66 112/68/67 37/66/65
f 39/69/8 113/70/68 38/67/66
f 37/66/65 112/68/67 36/18/18
f 112/68/67 35/71/69 36/18/18
f 38/67/66 113/70/68 112/68/67
f 113/70/68 114/72/70 112/68/67
f 112/68/67 114/72/70 35/71/69
f 114/72/70 34/73/71 35/71/69
f 39/69/8 33/61/7 113/70/68
f 33/61/7 32/59/59 113/70/68
f 113/70/68 32/59/59 114/72/70
f 32/59/59 31/58/58 114/72/70
f 114/72/70 31/58/58 34/73/71
f 31/58/58 4/14/14 34/73/71
f 24/52/52 42/21/21 6/20/20
f 23/56/56 115/74/72 24/52/52
f 22/9/9 116/75/73 23/56/56
f 24/52/52 115/74/72 42/21/21
f 115/74/72 41/76/74 42/21/21
f 23/56/56 116/75/73 115/74/72
f 116/75/73 117/77/75 115/74/72
f 115/74/72 117/77/75 41/76/74
f 117/78/75 40/79/76 41/80/74
f 22/9/9 39/8/8 116/75/73
f 39/69/8 38/67/66 116/81/73
f 116/81/73 38/67/66 117/78/75
f 38/67/66 37/66/65 117/78/75
f 117/78/75 37/66/65 40/79/76
f 37/66/65 5/17/17 40/79/76
f 46/82/77 45/83/78 11/40/40
f 47/84/79 118/85/80 46/82/77
f 48/10/10 119/86/81 47/84/79
f 46/82/77 118/85/80 45/83/78
f 118/85/80 44/87/82 45/83/78
f 47/84/79 119/86/81 118/85/80
f 119/86/81 120/88/83 118/85/80
f 118/85/80 120/88/83 44/87/82
f 120/88/83 43/27/27 44/87/82
f 48/10/10 27/6/6 119/86/81
f 27/6/6 26/53/53 119/86/81
f 119/86/81 26/53/53 120/88/83
f 26/53/53 25/51/51 120/88/83
f 120/88/83 25/51/51 43/27/27
f 25/51/51 6/20/20 43/27/27
f 52/89/84 51/90/85 7/28/28
f 53/91/86 121/92/87 52/89/84
f 54/13/13 122/93/88 53/91/86
f 52/89/84 121/92/87 51/90/85
f 121/92/87 50/94/89 51/90/85
f 53/91/86 122/93/88 121/92/87
f 122/93/88 123/95/90 121/92/87
f 121/92/87 123/95/90 50/94/89
f 123/95/90 49/23/23 50/94/89
f 54/13/13 18/12/12 122/93/88
f 18/12/12 17/47/47 122/93/88
f 122/93/88 17/47/47 123/95/90
f 17/47/47 16/49/49 123/95/90
f 123/95/90 16/49/49 49/23/23
f 16/49/49 2/4/4 49/23/23
f 58/96/91 57/97/92 8/31/31
f 59/98/93 124/99/94 58/96/91
f 60/16/16 125/100/95 59/98/93
f 58/96/91 124/99/94 57/97/92
f 124/99/94 56/101/96 57/97/92
f 59/98/93 125/100/95 124/99/94
f 125/100/95 126/102/97 124/99/94
f 124/99/94 126/102/97 56/101/96
f 126/102/97 55/24/24 56/101/96
f 60/16/16 30/15/15 125/100/95
f 30/15/15 29/63/62 125/100/95
f 125/100/95 29/63/62 126/102/97
f 29/63/62 28/65/64 126/102/97
f 126/102/97 28/65/64 55/24/24
f 28/65/64 3/11/11 55/24/24
f 64/103/98 63/104/99 9/34/34
f 65/105/100 127/106/101 64/103/98
f 66/19/19 128/107/102 65/105/100
f 64/103/98 127/106/101 63/104/99
f 127/106/101 62/108/103 63/104/99
f 65/105/100 128/107/102 127/106/101
f 128/107/102 129/109/104 127/106/101
f 127/106/101 129/109/104 62/108/103
f 129/109/104 61/25/25 62/108/103
f 66/19/19 36/18/18 128/107/102
f 36/18/18 35/71/69 128/107/102
f 128/107/102 35/71/69 129/109/104
f 35/71/69 34/73/71 129/109/104
f 129/109/104 34/73/71 61/25/25
f 34/73/71 4/14/14 61/25/25
f 70/110/105 69/111/106 10/37/37
f 71/112/107 130/113/108 70/114/105
f 72/22/22 131/115/109 71/112/107
f 70/110/105 130/116/108 69/111/106
f 130/116/108 68/117/110 69/111/106
f 71/112/107 131/115/109 130/113/108
f 131/115/109 132/118/111 130/113/108
f 130/116/108 132/119/111 68/117/110
f 132/119/111 67/26/26 68/117/110
f 72/22/22 42/21/21 131/115/109
f 42/21/21 41/76/74 131/115/109
f 131/115/109 41/76/74 132/118/111
f 41/80/74 40/79/76 132/119/111
f 132/119/111 40/79/76 67/26/26
f 40/79/76 5/17/17 67/26/26
f 51/90/85 75/29/29 7/28/28
f 50/94/89 133/120/112 51/90/85
f 49/23/23 134/121/113 50/94/89
f 51/90/85 133/120/112 75/29/29
f 133/120/112 74/122/114 75/29/29
f 50/94/89 134/121/113 133/120/112
f 134/121/113 135/123/115 133/120/112
f 133/120/112 135/123/115 74/122/114
f 135/123/115 73/124/116 74/122/114
f 49/23/23 48/10/10 134/121/113
f 48/10/10 47/84/79 134/121/113
f 134/121/113 47/84/79 135/123/115
f 47/84/79 46/82/77 135/123/115
f 135/123/115 46/82/77 73/124/116
f 46/82/77 11/40/40 73/124/116
f 57/97/92 78/32/32 8/31/31
f 56/101/96 136/125/117 57/97/92
f 55/24/24 137/126/118 56/101/96
f 57/97/92 136/125/117 78/32/32
f 136/125/117 77/127/119 78/32/32
f 56/101/96 137/126/118 136/125/117
f 137/126/118 138/128/120 136/125/117
f 136/125/117 138/128/120 77/127/119
f 138/128/120 76/129/121 77/127/119
f 55/24/24 54/13/13 137/126/118
f 54/13/13 53/91/86 137/126/118
f 137/126/118 53/91/86 138/128/120
f 53/91/86 52/89/84 138/128/120
f 138/128/120 52/89/84 76/129/121
f 52/89/84 7/28/28 76/129/121
f 63/104/99 81/35/35 9/34/34
f 62/108/103 139/130/122 63/104/99
f 61/25/25 140/131/123 62/108/103
f 63/104/99 139/130/122 81/35/35
f 139/130/122 80/132/124 81/35/35
f 62/108/103 140/131/123 139/130/122
f 140/131/123 141/133/125 139/130/122
f 139/130/122 141/133/125 80/132/124
f 141/133/125 79/134/126 80/132/124
f 61/25/25 60/16/16 140/131/123
f 60/16/16 59/98/93 140/131/123
f 140/131/123 59/98/93 141/133/125
f 59/98/93 58/96/91 141/133/125
f 141/133/125 58/96/91 79/134/126
f 58/96/91 8/31/31 79/134/126
f 69/111/106 84/38/38 10/37/37
f 68/117/110 142/135/127 69/111/106
f 67/26/26 143/136/128 68/117/110
f 69/111/106 142/135/127 84/38/38
f 142/135/127 83/137/129 84/38/38
f 68/117/110 143/136/128 142/135/127
f 143/136/128 144/138/130 142/135/127
f 142/135/127 144/138/130 83/137/129
f 144/138/130 82/139/131 83/137/129
f 67/26/26 66/19/19 143/136/128
f 66/19/19 65/105/100 143/136/128
f 143/136/128 65/105/100 144/138/130
f 65/105/100 64/103/98 144/138/130
f 144/138/130 64/103/98 82/139/131
f 64/103/98 9/34/34 82/139/131
f 45/83/78 87/41/41 11/40/40
f 44/87/82 145/140/132 45/83/78
f 43/27/27 146/141/133 44/87/82
f 45/83/78 145/140/132 87/41/41
f 145/140/132 86/142/134 87/41/41
f 44/87/82 146/141/133 145/140/132
f 146/141/133 147/143/135 145/140/132
f 145/140/132 147/143/135 86/142/134
f 147/143/135 85/144/136 86/142/134
f 43/27/27 72/22/22 146/141/133
f 72/22/22 71/112/107 146/141/133
f 146/141/133 71/112/107 147/143/135
f 71/112/107 70/114/105 147/143/135
f 147/143/135 70/114/105 85/144/136
f 70/114/105 10/145/37 85/144/136
f 91/146/137 90/147/138 12/148/139
f 92/149/140 148/150/141 91/146/137
f 93/30/30 149/151/142 92/149/140
f 91/146/137 148/150/141 90/147/138
f 148/150/141 89/152/143 90/147/138
f 92/149/140 149/151/142 148/150/141
f 149/151/142 150/153/144 148/150/141
f 148/150/141 150/153/144 89/152/143
f 150/153/144 88/42/42 89/152/143
f 93/30/30 75/29/29 149/151/142
f 75/29/29 74/122/114 149/151/142
f 149/151/142 74/122/114 150/153/144
f 74/122/114 73/124/116 150/153/144
f 150/153/144 73/124/116 88/42/42
f 73/124/116 11/40/40 88/42/42
f 94/154/145 91/146/137 12/148/139
f 95/155/146 151/156/147 94/154/145
f 96/33/33 152/157/148 95/155/146
f 94/154/145 151/156/147 91/146/137
f 151/156/147 92/149/140 91/146/137
f 95/155/146 152/157/148 151/156/147
f 152/157/148 153/158/149 151/156/147
f 151/156/147 153/158/149 92/149/140
f 153/158/149 93/30/30 92/149/140
f 96/33/33 78/32/32 152/157/148
f 78/32/32 77/127/119 152/157/148
f 152/157/148 77/127/119 153/158/149
f 77/127/119 76/129/121 153/158/149
f 153/158/149 76/129/121 93/30/30
f 76/129/121 7/28/28 93/30/30
f 97/159/150 94/154/145 12/148/139
f 98/160/151 154/161/152 97/159/150
f 99/36/36 155/162/153 98/160/151
f 97/159/150 154/161/152 94/154/145
f 154/161/152 95/155/146 94/154/145
f 98/160/151 155/162/153 154/161/152
f 155/162/153 156/163/154 154/161/152
f 154/161/152 156/163/154 95/155/146
f 156/163/154 96/33/33 95/155/146
f 99/36/36 81/35/35 155/162/153
f 81/35/35 80/132/124 155/162/153
f 155/162/153 80/132/124 156/163/154
f 80/132/124 79/134/126 156/163/154
f 156/163/154 79/134/126 96/33/33
f 79/134/126 8/31/31 96/33/33
f 100/164/155 97/159/150 12/148/139
f 101/165/156 157/166/157 100/164/155
f 102/39/39 158/167/158 101/165/156
f 100/164/155 157/166/157 97/159/150
f 157/166/157 98/160/151 97/159/150
f 101/165/156 158/167/158 157/166/157
f 158/167/158 159/168/159 157/166/157
f 157/166/157 159/168/159 98/160/151
f 159/168/159 99/36/36 98/160/151
f 102/39/39 84/38/38 158/167/158
f 84/38/38 83/137/129 158/167/158
f 158/167/158 83/137/129 159/168/159
f 83/137/129 82/139/131 159/168/159
f 159/168/159 82/139/131 99/36/36
f 82/139/131 9/34/34 99/36/36
f 90/147/138 100/164/155 12/148/139
f 89/152/143 160/169/160 90/147/138
f 88/42/42 161/170/161 89/152/143
f 90/147/138 160/169/160 100/171/155
f 160/169/160 101/172/156 100/171/155
f 89/152/143 161/170/161 160/169/160
f 161/170/161 162/173/162 160/169/160
f 160/169/160 162/173/162 101/172/156
f 162/173/162 102/174/39 101/172/156
f 88/42/42 87/41/41 161/170/161
f 87/41/41 86/142/134 161/170/161
f 161/170/161 86/142/134 162/173/162
f 86/142/134 85/144/136 162/173/162
f 162/173/162 85/144/136 102/174/39
f 85/144/136 10/145/37 102/174/39
