<?xml version="1.0" encoding="utf-8"?>
<!-- Generator: Adobe Illustrator 19.2.1, SVG Export Plug-In . SVG Version: 6.00 Build 0)  -->
<svg version="1.1" id="Layer_1" xmlns="http://www.w3.org/2000/svg" xmlns:xlink="http://www.w3.org/1999/xlink" x="0px" y="0px"
	 viewBox="0 0 294 345" style="enable-background:new 0 0 294 345;" xml:space="preserve">
<style type="text/css">
	.st0{fill:#A4C639;}
</style>
<path class="st0" d="M28,114.6c-11.2,0-20.4,9.2-20.4,20.4v85c0,11.2,9.2,20.4,20.4,20.4s20.4-9.2,20.4-20.4v-85
	C48.4,123.8,39.2,114.6,28,114.6z M266,114.6c-11.2,0-20.4,9.2-20.4,20.4v85c0,11.2,9.2,20.4,20.4,20.4s20.4-9.2,20.4-20.4v-85
	C286.4,123.8,277.2,114.6,266,114.6z M56,250c0,12.2,9.8,22,22,22h14.6v45c0,11.2,9.2,20.4,20.4,20.4s20.4-9.2,20.4-20.4v-45h27.2
	v45c0,11.2,9.2,20.4,20.4,20.4s20.4-9.2,20.4-20.4v-45H216c12.2,0,22-9.8,22-22V118.1H56V250z M191.6,37.8l14.4-26
	c0.8-1.4,0.3-3.2-1.1-3.9c-0.4-0.2-0.9-0.4-1.4-0.4c-1,0-2,0.5-2.5,1.5l-14.6,26.3C174.5,30,161.1,27,147,27s-27.5,3-39.4,8.3
	L93.1,9c-0.8-1.4-2.5-1.9-3.9-1.1c-1.4,0.8-1.9,2.5-1.1,3.9l14.4,26C74.7,52.2,56,79.6,56,110.9h182C238,79.6,219.3,52.2,191.6,37.8
	z M105,77.6c-4.2,0-7.6-3.4-7.6-7.6s3.4-7.6,7.6-7.6s7.6,3.4,7.6,7.6S109.2,77.6,105,77.6z M189,77.6c-4.2,0-7.6-3.4-7.6-7.6
	s3.4-7.6,7.6-7.6s7.6,3.4,7.6,7.6S193.2,77.6,189,77.6z"/>
</svg>
