<?xml version="1.0" encoding="UTF-8" standalone="no"?>
<!-- Created with Inkscape (http://www.inkscape.org/) -->

<svg
   width="10.174526mm"
   height="10.189986mm"
   viewBox="0 0 10.174526 10.189986"
   version="1.1"
   id="svg1"
   inkscape:version="1.4 (86a8ad7, 2024-10-11)"
   sodipodi:docname="steam.svg"
   xmlns:inkscape="http://www.inkscape.org/namespaces/inkscape"
   xmlns:sodipodi="http://sodipodi.sourceforge.net/DTD/sodipodi-0.dtd"
   xmlns="http://www.w3.org/2000/svg"
   xmlns:svg="http://www.w3.org/2000/svg">
  <sodipodi:namedview
     id="namedview1"
     pagecolor="#000000"
     bordercolor="#000000"
     borderopacity="0.25"
     inkscape:showpageshadow="2"
     inkscape:pageopacity="0.0"
     inkscape:pagecheckerboard="0"
     inkscape:deskcolor="#d1d1d1"
     inkscape:document-units="mm"
     inkscape:zoom="16.630104"
     inkscape:cx="15.724496"
     inkscape:cy="17.468321"
     inkscape:window-width="1920"
     inkscape:window-height="1027"
     inkscape:window-x="-8"
     inkscape:window-y="-8"
     inkscape:window-maximized="1"
     inkscape:current-layer="svg1" />
  <defs
     id="defs1">
    <clipPath
       clipPathUnits="userSpaceOnUse"
       id="clipPath210">
      <path
         d="m 42.739,391.343 h 30.117 v 28.885 H 42.739 Z"
         transform="translate(-59.633002,-411.01441)"
         id="path210" />
    </clipPath>
  </defs>
  <path
     id="path209"
     d="m 0,0 c -0.299,-0.449 -0.459,-0.976 -0.458,-1.516 0.001,-0.722 0.289,-1.415 0.8,-1.926 0.511,-0.51 1.204,-0.797 1.927,-0.797 0.539,0 1.066,0.16 1.515,0.46 0.448,0.299 0.798,0.725 1.004,1.224 0.206,0.498 0.26,1.047 0.155,1.576 C 4.837,-0.45 4.577,0.035 4.196,0.417 3.814,0.798 3.328,1.057 2.799,1.162 2.27,1.267 1.721,1.212 1.223,1.006 0.725,0.799 0.299,0.449 0,0 M 5.281,0.501 C 5.68,-0.096 5.892,-0.798 5.892,-1.516 5.889,-2.477 5.506,-3.398 4.826,-4.078 4.145,-4.758 3.224,-5.14 2.262,-5.142 c -0.718,0 -1.419,0.213 -2.016,0.612 -0.597,0.399 -1.062,0.966 -1.337,1.629 -0.274,0.664 -0.346,1.394 -0.206,2.098 0.14,0.704 0.486,1.35 0.994,1.858 C 0.205,1.562 0.852,1.908 1.556,2.047 2.26,2.187 2.99,2.115 3.653,1.839 4.316,1.564 4.883,1.099 5.281,0.501 m -13.124,-13.202 -1.777,0.735 c 0.258,-0.538 0.667,-0.988 1.176,-1.297 0.51,-0.309 1.098,-0.463 1.694,-0.443 0.595,0.02 1.172,0.212 1.66,0.555 0.488,0.342 0.865,0.819 1.086,1.372 0.222,0.553 0.277,1.159 0.16,1.743 -0.117,0.584 -0.402,1.122 -0.819,1.547 -0.418,0.425 -0.95,0.719 -1.532,0.847 -0.582,0.128 -1.189,0.083 -1.746,-0.128 l 1.833,-0.76 c 0.538,-0.24 0.961,-0.681 1.178,-1.228 0.218,-0.548 0.212,-1.158 -0.014,-1.702 -0.226,-0.544 -0.656,-0.977 -1.198,-1.209 -0.541,-0.231 -1.152,-0.241 -1.701,-0.029 z m -4.452,18.084 c 2.667,2.462 6.162,3.829 9.791,3.831 L -2.497,9.191 C 0.19,9.192 2.824,8.443 5.108,7.028 7.393,5.614 9.238,3.59 10.435,1.184 c 1.197,-2.406 1.699,-5.098 1.45,-7.773 -0.25,-2.676 -1.24,-5.229 -2.861,-7.372 -1.621,-2.143 -3.808,-3.791 -6.315,-4.759 -2.507,-0.969 -5.234,-1.218 -7.874,-0.721 -2.641,0.497 -5.091,1.721 -7.074,3.535 -1.983,1.813 -3.421,4.144 -4.151,6.73 l 5.535,-2.29 c 0.202,-0.992 0.766,-1.874 1.581,-2.475 0.815,-0.6 1.824,-0.877 2.831,-0.777 1.008,0.101 1.942,0.572 2.622,1.321 0.681,0.75 1.059,1.726 1.061,2.739 v 0.193 l 4.908,3.502 h 0.114 c 1.078,0 2.131,0.32 3.026,0.918 0.896,0.599 1.594,1.45 2.007,2.445 0.412,0.995 0.52,2.09 0.31,3.147 C 7.394,0.604 6.876,1.574 6.114,2.336 5.352,3.098 4.382,3.616 3.325,3.827 2.268,4.037 1.173,3.929 0.178,3.517 -0.817,3.104 -1.668,2.406 -2.267,1.51 -2.865,0.615 -3.185,-0.438 -3.185,-1.516 V -1.573 L -6.627,-6.56 h -0.228 c -0.821,0 -1.623,-0.248 -2.299,-0.713 l -7.74,3.202 c 0.291,3.617 1.933,6.993 4.599,9.454"
     style="fill:#ffffff;fill-opacity:1;fill-rule:evenodd;stroke:none"
     transform="matrix(0.35277777,0,0,-0.35277777,5.9598276,3.2503497)"
     clip-path="url(#clipPath210)"
     sodipodi:nodetypes="cccsccccsccccccscsccccccccccscscccscccccccscscccccccccccscccscccsccsccc" />
</svg>
